<svg width="51" height="52" viewBox="0 0 51 52" fill="none" xmlns="http://www.w3.org/2000/svg">
<g filter="url(#filter0_d)">
<path d="M18.1875 42.1875C19.0504 42.1875 19.75 41.4879 19.75 40.625C19.75 39.7621 19.0504 39.0625 18.1875 39.0625C17.3246 39.0625 16.625 39.7621 16.625 40.625C16.625 41.4879 17.3246 42.1875 18.1875 42.1875Z" stroke="black" stroke-width="2" stroke-linecap="round" stroke-linejoin="round"/>
<path d="M40.0625 42.1875C40.9254 42.1875 41.625 41.4879 41.625 40.625C41.625 39.7621 40.9254 39.0625 40.0625 39.0625C39.1996 39.0625 38.5 39.7621 38.5 40.625C38.5 41.4879 39.1996 42.1875 40.0625 42.1875Z" stroke="black" stroke-width="2" stroke-linecap="round" stroke-linejoin="round"/>
<path d="M5.6875 7.8125H11.9375L16.625 34.375H41.625" stroke="black" stroke-width="2" stroke-linecap="round" stroke-linejoin="round"/>
<path d="M16.625 28.125H40.9844C41.1651 28.1251 41.3402 28.0626 41.48 27.9481C41.6197 27.8336 41.7155 27.6742 41.751 27.4971L44.5635 13.4346C44.5862 13.3212 44.5834 13.2042 44.5554 13.092C44.5274 12.9798 44.4748 12.8752 44.4015 12.7858C44.3281 12.6964 44.2358 12.6244 44.1313 12.5749C44.0267 12.5255 43.9125 12.4999 43.7969 12.5H13.5" stroke="black" stroke-width="2" stroke-linecap="round" stroke-linejoin="round"/>
</g>
<defs>
<filter id="filter0_d" x="-3" y="0" width="58" height="58" filterUnits="userSpaceOnUse" color-interpolation-filters="sRGB">
<feFlood flood-opacity="0" result="BackgroundImageFix"/>
<feColorMatrix in="SourceAlpha" type="matrix" values="0 0 0 0 0 0 0 0 0 0 0 0 0 0 0 0 0 0 127 0"/>
<feOffset dy="4"/>
<feGaussianBlur stdDeviation="2"/>
<feColorMatrix type="matrix" values="0 0 0 0 0 0 0 0 0 0 0 0 0 0 0 0 0 0 0.25 0"/>
<feBlend mode="normal" in2="BackgroundImageFix" result="effect1_dropShadow"/>
<feBlend mode="normal" in="SourceGraphic" in2="effect1_dropShadow" result="shape"/>
</filter>
</defs>
</svg>
