<svg width="373" height="129" viewBox="0 0 373 129" fill="none" xmlns="http://www.w3.org/2000/svg">
<path d="M9.15967 103V24.0859H34.9585C43.522 24.0859 49.9536 25.8564 54.2534 29.3975C58.5894 32.9385 60.7573 38.1777 60.7573 45.1152C60.7573 48.8008 59.7095 52.0708 57.6138 54.9253C55.5181 57.7437 52.6636 59.9297 49.0503 61.4834C53.314 62.6758 56.6743 64.9521 59.1313 68.3125C61.6245 71.6367 62.8711 75.6113 62.8711 80.2363C62.8711 87.3184 60.5767 92.8828 55.9878 96.9297C51.3989 100.977 44.9131 103 36.5303 103H9.15967ZM19.5659 66.0903V94.4907H36.7471C41.5889 94.4907 45.4009 93.2441 48.1831 90.751C51.0015 88.2217 52.4106 84.7529 52.4106 80.3447C52.4106 70.8418 47.2437 66.0903 36.9097 66.0903H19.5659ZM19.5659 57.7437H35.2837C39.8364 57.7437 43.4678 56.6055 46.1777 54.3291C48.9238 52.0527 50.2969 48.9634 50.2969 45.061C50.2969 40.7251 49.0322 37.5815 46.5029 35.6304C43.9736 33.6431 40.1255 32.6494 34.9585 32.6494H19.5659V57.7437ZM87.6401 103H77.6133V19.75H87.6401V103ZM114.631 103H104.604V44.3564H114.631V103ZM103.792 28.8013C103.792 27.1753 104.279 25.8022 105.255 24.6821C106.267 23.562 107.748 23.002 109.699 23.002C111.65 23.002 113.132 23.562 114.144 24.6821C115.155 25.8022 115.661 27.1753 115.661 28.8013C115.661 30.4272 115.155 31.7822 114.144 32.8662C113.132 33.9502 111.65 34.4922 109.699 34.4922C107.748 34.4922 106.267 33.9502 105.255 32.8662C104.279 31.7822 103.792 30.4272 103.792 28.8013ZM140.159 94.8159H174.467V103H127.91V95.6289L160.267 52.6489H128.398V44.3564H172.841V51.4565L140.159 94.8159Z" fill="#00052E"/>
<path d="M196.689 103H186.662V19.75H196.689V103ZM231.973 88.312L245.631 44.3564H256.362L232.786 112.051C229.136 121.807 223.337 126.685 215.388 126.685L213.491 126.522L209.751 125.818V117.688L212.461 117.905C215.857 117.905 218.495 117.218 220.374 115.845C222.289 114.472 223.861 111.961 225.089 108.312L227.312 102.35L206.391 44.3564H217.339L231.973 88.312Z" fill="#F57224"/>
<path d="M289.64 40.0915H356.045L373 103.052H271.273L289.64 40.0915Z" fill="#00052E"/>
<path d="M339.091 40.0915C339.091 51.6822 333.439 24.3514 322.136 24.3514C313.659 24.3514 303.769 51.6822 303.769 40.0915C303.769 28.5008 311.212 17.7931 322.136 17.7931C333.061 17.7931 339.091 28.5008 339.091 40.0915Z" fill="#00052E"/>
<path d="M350.394 78.3669C350.394 83.4379 337.743 91.4836 322.136 91.4836C306.53 91.4836 295.292 83.4379 295.292 78.3669C299.787 81.5517 306.53 83.7759 322.136 83.7759C337.743 83.7759 346.798 80.069 350.394 78.3669Z" fill="white"/>
<ellipse cx="337.678" cy="62.39" rx="4.23864" ry="3.93501" fill="white"/>
<ellipse cx="309.42" cy="62.39" rx="4.23864" ry="3.93501" fill="white"/>
</svg>
